%TF.GenerationSoftware,KiCad,Pcbnew,8.0.5*%
%TF.CreationDate,2024-12-28T23:53:34+01:00*%
%TF.ProjectId,LM399_voltage_reference,4c4d3339-395f-4766-9f6c-746167655f72,rev?*%
%TF.SameCoordinates,Original*%
%TF.FileFunction,Copper,L2,Bot*%
%TF.FilePolarity,Positive*%
%FSLAX46Y46*%
G04 Gerber Fmt 4.6, Leading zero omitted, Abs format (unit mm)*
G04 Created by KiCad (PCBNEW 8.0.5) date 2024-12-28 23:53:34*
%MOMM*%
%LPD*%
G01*
G04 APERTURE LIST*
%TA.AperFunction,ComponentPad*%
%ADD10O,1.600000X1.200000*%
%TD*%
%TA.AperFunction,ComponentPad*%
%ADD11C,1.200000*%
%TD*%
%TA.AperFunction,SMDPad,CuDef*%
%ADD12R,0.500000X0.800000*%
%TD*%
%TA.AperFunction,SMDPad,CuDef*%
%ADD13R,0.400000X0.800000*%
%TD*%
%TA.AperFunction,ViaPad*%
%ADD14C,0.600000*%
%TD*%
%TA.AperFunction,Conductor*%
%ADD15C,0.500000*%
%TD*%
%TA.AperFunction,Conductor*%
%ADD16C,0.300000*%
%TD*%
G04 APERTURE END LIST*
D10*
%TO.P,U1,1*%
%TO.N,Net-(U2-+)*%
X201270000Y-100000000D03*
D11*
%TO.P,U1,2*%
%TO.N,GND*%
X200000000Y-98730000D03*
%TO.P,U1,3*%
%TO.N,vcc*%
X198730000Y-100000000D03*
%TO.P,U1,4*%
%TO.N,GND*%
X200000000Y-101270000D03*
%TD*%
D12*
%TO.P,RN1,1,R1.1*%
%TO.N,Net-(RN1-R1.1)*%
X226202500Y-99800000D03*
D13*
%TO.P,RN1,2,R2.1*%
X225402500Y-99800000D03*
%TO.P,RN1,3,R3.1*%
X224602500Y-99800000D03*
D12*
%TO.P,RN1,4,R4.1*%
%TO.N,unconnected-(RN1-R4.1-Pad4)*%
X223802500Y-99800000D03*
%TO.P,RN1,5,R4.2*%
%TO.N,unconnected-(RN1-R4.2-Pad5)*%
X223802500Y-98000000D03*
D13*
%TO.P,RN1,6,R3.2*%
%TO.N,GND*%
X224602500Y-98000000D03*
%TO.P,RN1,7,R2.2*%
%TO.N,Net-(RN1-R1.2)*%
X225402500Y-98000000D03*
D12*
%TO.P,RN1,8,R1.2*%
X226202500Y-98000000D03*
%TD*%
D14*
%TO.N,GND*%
X176100000Y-102300000D03*
X222400000Y-98800000D03*
X229500000Y-103102082D03*
X229465000Y-93400000D03*
%TO.N,Net-(RN1-R1.2)*%
X227600000Y-97900000D03*
%TO.N,Net-(RN1-R1.1)*%
X226330000Y-99670000D03*
%TD*%
D15*
%TO.N,GND*%
X229500000Y-103102082D02*
X229465000Y-103067082D01*
D16*
X227600000Y-99900000D02*
X227600000Y-101198959D01*
D15*
X225552500Y-103100000D02*
X222400000Y-99947500D01*
D16*
X227600000Y-101198959D02*
X227598959Y-101200000D01*
X229500000Y-103101041D02*
X229500000Y-103102082D01*
X226700000Y-99000000D02*
X227600000Y-99900000D01*
D15*
X229500000Y-103102082D02*
X229497918Y-103100000D01*
D16*
X227598959Y-101200000D02*
X229500000Y-103101041D01*
X224602500Y-98700000D02*
X224902500Y-99000000D01*
X224602500Y-98000000D02*
X224602500Y-98700000D01*
X224902500Y-99000000D02*
X226700000Y-99000000D01*
D15*
X222400000Y-99947500D02*
X222400000Y-98800000D01*
X229465000Y-103067082D02*
X229465000Y-93400000D01*
X229497918Y-103100000D02*
X225552500Y-103100000D01*
%TO.N,Net-(RN1-R1.2)*%
X226202500Y-98000000D02*
X227500000Y-98000000D01*
X227500000Y-98000000D02*
X227600000Y-97900000D01*
X225402500Y-98000000D02*
X226202500Y-98000000D01*
%TO.N,Net-(RN1-R1.1)*%
X226200000Y-99800000D02*
X224602500Y-99800000D01*
X226330000Y-99670000D02*
X226200000Y-99800000D01*
%TD*%
M02*
