%TF.GenerationSoftware,KiCad,Pcbnew,8.0.5*%
%TF.CreationDate,2024-12-28T23:53:34+01:00*%
%TF.ProjectId,LM399_voltage_reference,4c4d3339-395f-4766-9f6c-746167655f72,rev?*%
%TF.SameCoordinates,Original*%
%TF.FileFunction,Legend,Top*%
%TF.FilePolarity,Positive*%
%FSLAX46Y46*%
G04 Gerber Fmt 4.6, Leading zero omitted, Abs format (unit mm)*
G04 Created by KiCad (PCBNEW 8.0.5) date 2024-12-28 23:53:34*
%MOMM*%
%LPD*%
G01*
G04 APERTURE LIST*
%ADD10C,0.100000*%
%ADD11C,0.150000*%
%ADD12C,0.120000*%
G04 APERTURE END LIST*
D10*
X175627693Y-91072419D02*
X175056265Y-91072419D01*
X175341979Y-91072419D02*
X175341979Y-90072419D01*
X175341979Y-90072419D02*
X175246741Y-90215276D01*
X175246741Y-90215276D02*
X175151503Y-90310514D01*
X175151503Y-90310514D02*
X175056265Y-90358133D01*
X176532455Y-90072419D02*
X176056265Y-90072419D01*
X176056265Y-90072419D02*
X176008646Y-90548609D01*
X176008646Y-90548609D02*
X176056265Y-90500990D01*
X176056265Y-90500990D02*
X176151503Y-90453371D01*
X176151503Y-90453371D02*
X176389598Y-90453371D01*
X176389598Y-90453371D02*
X176484836Y-90500990D01*
X176484836Y-90500990D02*
X176532455Y-90548609D01*
X176532455Y-90548609D02*
X176580074Y-90643847D01*
X176580074Y-90643847D02*
X176580074Y-90881942D01*
X176580074Y-90881942D02*
X176532455Y-90977180D01*
X176532455Y-90977180D02*
X176484836Y-91024800D01*
X176484836Y-91024800D02*
X176389598Y-91072419D01*
X176389598Y-91072419D02*
X176151503Y-91072419D01*
X176151503Y-91072419D02*
X176056265Y-91024800D01*
X176056265Y-91024800D02*
X176008646Y-90977180D01*
X176865789Y-90072419D02*
X177199122Y-91072419D01*
X177199122Y-91072419D02*
X177532455Y-90072419D01*
X233327693Y-100620038D02*
X233232455Y-100572419D01*
X233232455Y-100572419D02*
X233089598Y-100572419D01*
X233089598Y-100572419D02*
X232946741Y-100620038D01*
X232946741Y-100620038D02*
X232851503Y-100715276D01*
X232851503Y-100715276D02*
X232803884Y-100810514D01*
X232803884Y-100810514D02*
X232756265Y-101000990D01*
X232756265Y-101000990D02*
X232756265Y-101143847D01*
X232756265Y-101143847D02*
X232803884Y-101334323D01*
X232803884Y-101334323D02*
X232851503Y-101429561D01*
X232851503Y-101429561D02*
X232946741Y-101524800D01*
X232946741Y-101524800D02*
X233089598Y-101572419D01*
X233089598Y-101572419D02*
X233184836Y-101572419D01*
X233184836Y-101572419D02*
X233327693Y-101524800D01*
X233327693Y-101524800D02*
X233375312Y-101477180D01*
X233375312Y-101477180D02*
X233375312Y-101143847D01*
X233375312Y-101143847D02*
X233184836Y-101143847D01*
X233803884Y-101572419D02*
X233803884Y-100572419D01*
X233803884Y-100572419D02*
X234375312Y-101572419D01*
X234375312Y-101572419D02*
X234375312Y-100572419D01*
X234851503Y-101572419D02*
X234851503Y-100572419D01*
X234851503Y-100572419D02*
X235089598Y-100572419D01*
X235089598Y-100572419D02*
X235232455Y-100620038D01*
X235232455Y-100620038D02*
X235327693Y-100715276D01*
X235327693Y-100715276D02*
X235375312Y-100810514D01*
X235375312Y-100810514D02*
X235422931Y-101000990D01*
X235422931Y-101000990D02*
X235422931Y-101143847D01*
X235422931Y-101143847D02*
X235375312Y-101334323D01*
X235375312Y-101334323D02*
X235327693Y-101429561D01*
X235327693Y-101429561D02*
X235232455Y-101524800D01*
X235232455Y-101524800D02*
X235089598Y-101572419D01*
X235089598Y-101572419D02*
X234851503Y-101572419D01*
X232994360Y-90172419D02*
X233184836Y-90172419D01*
X233184836Y-90172419D02*
X233280074Y-90220038D01*
X233280074Y-90220038D02*
X233375312Y-90315276D01*
X233375312Y-90315276D02*
X233422931Y-90505752D01*
X233422931Y-90505752D02*
X233422931Y-90839085D01*
X233422931Y-90839085D02*
X233375312Y-91029561D01*
X233375312Y-91029561D02*
X233280074Y-91124800D01*
X233280074Y-91124800D02*
X233184836Y-91172419D01*
X233184836Y-91172419D02*
X232994360Y-91172419D01*
X232994360Y-91172419D02*
X232899122Y-91124800D01*
X232899122Y-91124800D02*
X232803884Y-91029561D01*
X232803884Y-91029561D02*
X232756265Y-90839085D01*
X232756265Y-90839085D02*
X232756265Y-90505752D01*
X232756265Y-90505752D02*
X232803884Y-90315276D01*
X232803884Y-90315276D02*
X232899122Y-90220038D01*
X232899122Y-90220038D02*
X232994360Y-90172419D01*
X233851503Y-90172419D02*
X233851503Y-90981942D01*
X233851503Y-90981942D02*
X233899122Y-91077180D01*
X233899122Y-91077180D02*
X233946741Y-91124800D01*
X233946741Y-91124800D02*
X234041979Y-91172419D01*
X234041979Y-91172419D02*
X234232455Y-91172419D01*
X234232455Y-91172419D02*
X234327693Y-91124800D01*
X234327693Y-91124800D02*
X234375312Y-91077180D01*
X234375312Y-91077180D02*
X234422931Y-90981942D01*
X234422931Y-90981942D02*
X234422931Y-90172419D01*
X234756265Y-90172419D02*
X235327693Y-90172419D01*
X235041979Y-91172419D02*
X235041979Y-90172419D01*
X175527693Y-98520038D02*
X175432455Y-98472419D01*
X175432455Y-98472419D02*
X175289598Y-98472419D01*
X175289598Y-98472419D02*
X175146741Y-98520038D01*
X175146741Y-98520038D02*
X175051503Y-98615276D01*
X175051503Y-98615276D02*
X175003884Y-98710514D01*
X175003884Y-98710514D02*
X174956265Y-98900990D01*
X174956265Y-98900990D02*
X174956265Y-99043847D01*
X174956265Y-99043847D02*
X175003884Y-99234323D01*
X175003884Y-99234323D02*
X175051503Y-99329561D01*
X175051503Y-99329561D02*
X175146741Y-99424800D01*
X175146741Y-99424800D02*
X175289598Y-99472419D01*
X175289598Y-99472419D02*
X175384836Y-99472419D01*
X175384836Y-99472419D02*
X175527693Y-99424800D01*
X175527693Y-99424800D02*
X175575312Y-99377180D01*
X175575312Y-99377180D02*
X175575312Y-99043847D01*
X175575312Y-99043847D02*
X175384836Y-99043847D01*
X176003884Y-99472419D02*
X176003884Y-98472419D01*
X176003884Y-98472419D02*
X176575312Y-99472419D01*
X176575312Y-99472419D02*
X176575312Y-98472419D01*
X177051503Y-99472419D02*
X177051503Y-98472419D01*
X177051503Y-98472419D02*
X177289598Y-98472419D01*
X177289598Y-98472419D02*
X177432455Y-98520038D01*
X177432455Y-98520038D02*
X177527693Y-98615276D01*
X177527693Y-98615276D02*
X177575312Y-98710514D01*
X177575312Y-98710514D02*
X177622931Y-98900990D01*
X177622931Y-98900990D02*
X177622931Y-99043847D01*
X177622931Y-99043847D02*
X177575312Y-99234323D01*
X177575312Y-99234323D02*
X177527693Y-99329561D01*
X177527693Y-99329561D02*
X177432455Y-99424800D01*
X177432455Y-99424800D02*
X177289598Y-99472419D01*
X177289598Y-99472419D02*
X177051503Y-99472419D01*
D11*
X232733333Y-99354819D02*
X232400000Y-98878628D01*
X232161905Y-99354819D02*
X232161905Y-98354819D01*
X232161905Y-98354819D02*
X232542857Y-98354819D01*
X232542857Y-98354819D02*
X232638095Y-98402438D01*
X232638095Y-98402438D02*
X232685714Y-98450057D01*
X232685714Y-98450057D02*
X232733333Y-98545295D01*
X232733333Y-98545295D02*
X232733333Y-98688152D01*
X232733333Y-98688152D02*
X232685714Y-98783390D01*
X232685714Y-98783390D02*
X232638095Y-98831009D01*
X232638095Y-98831009D02*
X232542857Y-98878628D01*
X232542857Y-98878628D02*
X232161905Y-98878628D01*
X233685714Y-99354819D02*
X233114286Y-99354819D01*
X233400000Y-99354819D02*
X233400000Y-98354819D01*
X233400000Y-98354819D02*
X233304762Y-98497676D01*
X233304762Y-98497676D02*
X233209524Y-98592914D01*
X233209524Y-98592914D02*
X233114286Y-98640533D01*
X198476095Y-105931819D02*
X198476095Y-106741342D01*
X198476095Y-106741342D02*
X198523714Y-106836580D01*
X198523714Y-106836580D02*
X198571333Y-106884200D01*
X198571333Y-106884200D02*
X198666571Y-106931819D01*
X198666571Y-106931819D02*
X198857047Y-106931819D01*
X198857047Y-106931819D02*
X198952285Y-106884200D01*
X198952285Y-106884200D02*
X198999904Y-106836580D01*
X198999904Y-106836580D02*
X199047523Y-106741342D01*
X199047523Y-106741342D02*
X199047523Y-105931819D01*
X200047523Y-106931819D02*
X199476095Y-106931819D01*
X199761809Y-106931819D02*
X199761809Y-105931819D01*
X199761809Y-105931819D02*
X199666571Y-106074676D01*
X199666571Y-106074676D02*
X199571333Y-106169914D01*
X199571333Y-106169914D02*
X199476095Y-106217533D01*
X233238095Y-80254819D02*
X233238095Y-79254819D01*
X233238095Y-79731009D02*
X233809523Y-79731009D01*
X233809523Y-80254819D02*
X233809523Y-79254819D01*
X234714285Y-79588152D02*
X234714285Y-80254819D01*
X234476190Y-79207200D02*
X234238095Y-79921485D01*
X234238095Y-79921485D02*
X234857142Y-79921485D01*
X227298333Y-92159580D02*
X227250714Y-92207200D01*
X227250714Y-92207200D02*
X227107857Y-92254819D01*
X227107857Y-92254819D02*
X227012619Y-92254819D01*
X227012619Y-92254819D02*
X226869762Y-92207200D01*
X226869762Y-92207200D02*
X226774524Y-92111961D01*
X226774524Y-92111961D02*
X226726905Y-92016723D01*
X226726905Y-92016723D02*
X226679286Y-91826247D01*
X226679286Y-91826247D02*
X226679286Y-91683390D01*
X226679286Y-91683390D02*
X226726905Y-91492914D01*
X226726905Y-91492914D02*
X226774524Y-91397676D01*
X226774524Y-91397676D02*
X226869762Y-91302438D01*
X226869762Y-91302438D02*
X227012619Y-91254819D01*
X227012619Y-91254819D02*
X227107857Y-91254819D01*
X227107857Y-91254819D02*
X227250714Y-91302438D01*
X227250714Y-91302438D02*
X227298333Y-91350057D01*
X228155476Y-91588152D02*
X228155476Y-92254819D01*
X227917381Y-91207200D02*
X227679286Y-91921485D01*
X227679286Y-91921485D02*
X228298333Y-91921485D01*
X176238095Y-80254819D02*
X176238095Y-79254819D01*
X176238095Y-79731009D02*
X176809523Y-79731009D01*
X176809523Y-80254819D02*
X176809523Y-79254819D01*
X177809523Y-80254819D02*
X177238095Y-80254819D01*
X177523809Y-80254819D02*
X177523809Y-79254819D01*
X177523809Y-79254819D02*
X177428571Y-79397676D01*
X177428571Y-79397676D02*
X177333333Y-79492914D01*
X177333333Y-79492914D02*
X177238095Y-79540533D01*
X233238095Y-112254819D02*
X233238095Y-111254819D01*
X233238095Y-111731009D02*
X233809523Y-111731009D01*
X233809523Y-112254819D02*
X233809523Y-111254819D01*
X234190476Y-111254819D02*
X234809523Y-111254819D01*
X234809523Y-111254819D02*
X234476190Y-111635771D01*
X234476190Y-111635771D02*
X234619047Y-111635771D01*
X234619047Y-111635771D02*
X234714285Y-111683390D01*
X234714285Y-111683390D02*
X234761904Y-111731009D01*
X234761904Y-111731009D02*
X234809523Y-111826247D01*
X234809523Y-111826247D02*
X234809523Y-112064342D01*
X234809523Y-112064342D02*
X234761904Y-112159580D01*
X234761904Y-112159580D02*
X234714285Y-112207200D01*
X234714285Y-112207200D02*
X234619047Y-112254819D01*
X234619047Y-112254819D02*
X234333333Y-112254819D01*
X234333333Y-112254819D02*
X234238095Y-112207200D01*
X234238095Y-112207200D02*
X234190476Y-112159580D01*
X190733333Y-98159580D02*
X190685714Y-98207200D01*
X190685714Y-98207200D02*
X190542857Y-98254819D01*
X190542857Y-98254819D02*
X190447619Y-98254819D01*
X190447619Y-98254819D02*
X190304762Y-98207200D01*
X190304762Y-98207200D02*
X190209524Y-98111961D01*
X190209524Y-98111961D02*
X190161905Y-98016723D01*
X190161905Y-98016723D02*
X190114286Y-97826247D01*
X190114286Y-97826247D02*
X190114286Y-97683390D01*
X190114286Y-97683390D02*
X190161905Y-97492914D01*
X190161905Y-97492914D02*
X190209524Y-97397676D01*
X190209524Y-97397676D02*
X190304762Y-97302438D01*
X190304762Y-97302438D02*
X190447619Y-97254819D01*
X190447619Y-97254819D02*
X190542857Y-97254819D01*
X190542857Y-97254819D02*
X190685714Y-97302438D01*
X190685714Y-97302438D02*
X190733333Y-97350057D01*
X191066667Y-97254819D02*
X191685714Y-97254819D01*
X191685714Y-97254819D02*
X191352381Y-97635771D01*
X191352381Y-97635771D02*
X191495238Y-97635771D01*
X191495238Y-97635771D02*
X191590476Y-97683390D01*
X191590476Y-97683390D02*
X191638095Y-97731009D01*
X191638095Y-97731009D02*
X191685714Y-97826247D01*
X191685714Y-97826247D02*
X191685714Y-98064342D01*
X191685714Y-98064342D02*
X191638095Y-98159580D01*
X191638095Y-98159580D02*
X191590476Y-98207200D01*
X191590476Y-98207200D02*
X191495238Y-98254819D01*
X191495238Y-98254819D02*
X191209524Y-98254819D01*
X191209524Y-98254819D02*
X191114286Y-98207200D01*
X191114286Y-98207200D02*
X191066667Y-98159580D01*
X176238095Y-112254819D02*
X176238095Y-111254819D01*
X176238095Y-111731009D02*
X176809523Y-111731009D01*
X176809523Y-112254819D02*
X176809523Y-111254819D01*
X177238095Y-111350057D02*
X177285714Y-111302438D01*
X177285714Y-111302438D02*
X177380952Y-111254819D01*
X177380952Y-111254819D02*
X177619047Y-111254819D01*
X177619047Y-111254819D02*
X177714285Y-111302438D01*
X177714285Y-111302438D02*
X177761904Y-111350057D01*
X177761904Y-111350057D02*
X177809523Y-111445295D01*
X177809523Y-111445295D02*
X177809523Y-111540533D01*
X177809523Y-111540533D02*
X177761904Y-111683390D01*
X177761904Y-111683390D02*
X177190476Y-112254819D01*
X177190476Y-112254819D02*
X177809523Y-112254819D01*
X192933333Y-98159580D02*
X192885714Y-98207200D01*
X192885714Y-98207200D02*
X192742857Y-98254819D01*
X192742857Y-98254819D02*
X192647619Y-98254819D01*
X192647619Y-98254819D02*
X192504762Y-98207200D01*
X192504762Y-98207200D02*
X192409524Y-98111961D01*
X192409524Y-98111961D02*
X192361905Y-98016723D01*
X192361905Y-98016723D02*
X192314286Y-97826247D01*
X192314286Y-97826247D02*
X192314286Y-97683390D01*
X192314286Y-97683390D02*
X192361905Y-97492914D01*
X192361905Y-97492914D02*
X192409524Y-97397676D01*
X192409524Y-97397676D02*
X192504762Y-97302438D01*
X192504762Y-97302438D02*
X192647619Y-97254819D01*
X192647619Y-97254819D02*
X192742857Y-97254819D01*
X192742857Y-97254819D02*
X192885714Y-97302438D01*
X192885714Y-97302438D02*
X192933333Y-97350057D01*
X193885714Y-98254819D02*
X193314286Y-98254819D01*
X193600000Y-98254819D02*
X193600000Y-97254819D01*
X193600000Y-97254819D02*
X193504762Y-97397676D01*
X193504762Y-97397676D02*
X193409524Y-97492914D01*
X193409524Y-97492914D02*
X193314286Y-97540533D01*
X227798333Y-88579580D02*
X227750714Y-88627200D01*
X227750714Y-88627200D02*
X227607857Y-88674819D01*
X227607857Y-88674819D02*
X227512619Y-88674819D01*
X227512619Y-88674819D02*
X227369762Y-88627200D01*
X227369762Y-88627200D02*
X227274524Y-88531961D01*
X227274524Y-88531961D02*
X227226905Y-88436723D01*
X227226905Y-88436723D02*
X227179286Y-88246247D01*
X227179286Y-88246247D02*
X227179286Y-88103390D01*
X227179286Y-88103390D02*
X227226905Y-87912914D01*
X227226905Y-87912914D02*
X227274524Y-87817676D01*
X227274524Y-87817676D02*
X227369762Y-87722438D01*
X227369762Y-87722438D02*
X227512619Y-87674819D01*
X227512619Y-87674819D02*
X227607857Y-87674819D01*
X227607857Y-87674819D02*
X227750714Y-87722438D01*
X227750714Y-87722438D02*
X227798333Y-87770057D01*
X228179286Y-87770057D02*
X228226905Y-87722438D01*
X228226905Y-87722438D02*
X228322143Y-87674819D01*
X228322143Y-87674819D02*
X228560238Y-87674819D01*
X228560238Y-87674819D02*
X228655476Y-87722438D01*
X228655476Y-87722438D02*
X228703095Y-87770057D01*
X228703095Y-87770057D02*
X228750714Y-87865295D01*
X228750714Y-87865295D02*
X228750714Y-87960533D01*
X228750714Y-87960533D02*
X228703095Y-88103390D01*
X228703095Y-88103390D02*
X228131667Y-88674819D01*
X228131667Y-88674819D02*
X228750714Y-88674819D01*
D12*
%TO.C,R1*%
X230442500Y-99154724D02*
X230442500Y-98645276D01*
X231487500Y-99154724D02*
X231487500Y-98645276D01*
%TO.C,U1*%
X201582331Y-102572281D02*
X202494499Y-103484448D01*
X202494499Y-103484448D02*
X203484448Y-102494499D01*
X203484448Y-102494499D02*
X202572281Y-101582331D01*
X201582331Y-102572281D02*
G75*
G02*
X202572150Y-101582544I-1582331J2572281D01*
G01*
X205400000Y-100000000D02*
G75*
G02*
X194600000Y-100000000I-5400000J0D01*
G01*
X194600000Y-100000000D02*
G75*
G02*
X205400000Y-100000000I5400000J0D01*
G01*
%TO.C,TP4*%
X178350000Y-102300000D02*
G75*
G02*
X173850000Y-102300000I-2250000J0D01*
G01*
X173850000Y-102300000D02*
G75*
G02*
X178350000Y-102300000I2250000J0D01*
G01*
%TO.C,TP3*%
X178450000Y-93900000D02*
G75*
G02*
X173950000Y-93900000I-2250000J0D01*
G01*
X173950000Y-93900000D02*
G75*
G02*
X178450000Y-93900000I2250000J0D01*
G01*
%TO.C,C4*%
X227318733Y-92890000D02*
X227611267Y-92890000D01*
X227318733Y-93910000D02*
X227611267Y-93910000D01*
%TO.C,U2*%
X224405000Y-98900000D02*
X224405000Y-96950000D01*
X224405000Y-98900000D02*
X224405000Y-100850000D01*
X229525000Y-98900000D02*
X229525000Y-96950000D01*
X229525000Y-98900000D02*
X229525000Y-100850000D01*
X224500000Y-101600000D02*
X224170000Y-101840000D01*
X224170000Y-101360000D01*
X224500000Y-101600000D01*
G36*
X224500000Y-101600000D02*
G01*
X224170000Y-101840000D01*
X224170000Y-101360000D01*
X224500000Y-101600000D01*
G37*
%TO.C,C3*%
X190265000Y-100238748D02*
X190265000Y-100761252D01*
X191735000Y-100238748D02*
X191735000Y-100761252D01*
%TO.C,TP1*%
X236215000Y-93900000D02*
G75*
G02*
X231715000Y-93900000I-2250000J0D01*
G01*
X231715000Y-93900000D02*
G75*
G02*
X236215000Y-93900000I2250000J0D01*
G01*
%TO.C,C1*%
X192490000Y-100353733D02*
X192490000Y-100646267D01*
X193510000Y-100353733D02*
X193510000Y-100646267D01*
%TO.C,C2*%
X227703748Y-89165000D02*
X228226252Y-89165000D01*
X227703748Y-90635000D02*
X228226252Y-90635000D01*
%TO.C,TP2*%
X236215000Y-104400000D02*
G75*
G02*
X231715000Y-104400000I-2250000J0D01*
G01*
X231715000Y-104400000D02*
G75*
G02*
X236215000Y-104400000I2250000J0D01*
G01*
%TD*%
M02*
