%TF.GenerationSoftware,KiCad,Pcbnew,8.0.5*%
%TF.CreationDate,2024-12-28T23:53:34+01:00*%
%TF.ProjectId,LM399_voltage_reference,4c4d3339-395f-4766-9f6c-746167655f72,rev?*%
%TF.SameCoordinates,Original*%
%TF.FileFunction,Copper,L1,Top*%
%TF.FilePolarity,Positive*%
%FSLAX46Y46*%
G04 Gerber Fmt 4.6, Leading zero omitted, Abs format (unit mm)*
G04 Created by KiCad (PCBNEW 8.0.5) date 2024-12-28 23:53:34*
%MOMM*%
%LPD*%
G01*
G04 APERTURE LIST*
G04 Aperture macros list*
%AMRoundRect*
0 Rectangle with rounded corners*
0 $1 Rounding radius*
0 $2 $3 $4 $5 $6 $7 $8 $9 X,Y pos of 4 corners*
0 Add a 4 corners polygon primitive as box body*
4,1,4,$2,$3,$4,$5,$6,$7,$8,$9,$2,$3,0*
0 Add four circle primitives for the rounded corners*
1,1,$1+$1,$2,$3*
1,1,$1+$1,$4,$5*
1,1,$1+$1,$6,$7*
1,1,$1+$1,$8,$9*
0 Add four rect primitives between the rounded corners*
20,1,$1+$1,$2,$3,$4,$5,0*
20,1,$1+$1,$4,$5,$6,$7,0*
20,1,$1+$1,$6,$7,$8,$9,0*
20,1,$1+$1,$8,$9,$2,$3,0*%
G04 Aperture macros list end*
%TA.AperFunction,SMDPad,CuDef*%
%ADD10RoundRect,0.237500X0.237500X-0.250000X0.237500X0.250000X-0.237500X0.250000X-0.237500X-0.250000X0*%
%TD*%
%TA.AperFunction,ComponentPad*%
%ADD11O,1.600000X1.200000*%
%TD*%
%TA.AperFunction,ComponentPad*%
%ADD12C,1.200000*%
%TD*%
%TA.AperFunction,SMDPad,CuDef*%
%ADD13C,4.000000*%
%TD*%
%TA.AperFunction,SMDPad,CuDef*%
%ADD14RoundRect,0.237500X-0.300000X-0.237500X0.300000X-0.237500X0.300000X0.237500X-0.300000X0.237500X0*%
%TD*%
%TA.AperFunction,SMDPad,CuDef*%
%ADD15RoundRect,0.150000X0.150000X-0.825000X0.150000X0.825000X-0.150000X0.825000X-0.150000X-0.825000X0*%
%TD*%
%TA.AperFunction,SMDPad,CuDef*%
%ADD16RoundRect,0.250000X-0.475000X0.337500X-0.475000X-0.337500X0.475000X-0.337500X0.475000X0.337500X0*%
%TD*%
%TA.AperFunction,SMDPad,CuDef*%
%ADD17RoundRect,0.237500X-0.237500X0.300000X-0.237500X-0.300000X0.237500X-0.300000X0.237500X0.300000X0*%
%TD*%
%TA.AperFunction,SMDPad,CuDef*%
%ADD18RoundRect,0.250000X-0.337500X-0.475000X0.337500X-0.475000X0.337500X0.475000X-0.337500X0.475000X0*%
%TD*%
%TA.AperFunction,ViaPad*%
%ADD19C,0.600000*%
%TD*%
%TA.AperFunction,Conductor*%
%ADD20C,0.500000*%
%TD*%
%TA.AperFunction,Conductor*%
%ADD21C,1.000000*%
%TD*%
G04 APERTURE END LIST*
D10*
%TO.P,R1,1*%
%TO.N,Net-(U2-+)*%
X230965000Y-99812500D03*
%TO.P,R1,2*%
%TO.N,Net-(RN1-R1.2)*%
X230965000Y-97987500D03*
%TD*%
D11*
%TO.P,U1,1*%
%TO.N,Net-(U2-+)*%
X201270000Y-100000000D03*
D12*
%TO.P,U1,2*%
%TO.N,GND*%
X200000000Y-98730000D03*
%TO.P,U1,3*%
%TO.N,vcc*%
X198730000Y-100000000D03*
%TO.P,U1,4*%
%TO.N,GND*%
X200000000Y-101270000D03*
%TD*%
D13*
%TO.P,TP4,1,1*%
%TO.N,GND*%
X176100000Y-102300000D03*
%TD*%
%TO.P,TP3,1,1*%
%TO.N,vcc*%
X176200000Y-93900000D03*
%TD*%
D14*
%TO.P,C4,1*%
%TO.N,vcc*%
X226602500Y-93400000D03*
%TO.P,C4,2*%
%TO.N,GND*%
X228327500Y-93400000D03*
%TD*%
D15*
%TO.P,U2,1,SHDN*%
%TO.N,Net-(U2-CP)*%
X225060000Y-101375000D03*
%TO.P,U2,2,-*%
%TO.N,Net-(RN1-R1.1)*%
X226330000Y-101375000D03*
%TO.P,U2,3,+*%
%TO.N,Net-(U2-+)*%
X227600000Y-101375000D03*
%TO.P,U2,4,V-*%
%TO.N,GND*%
X228870000Y-101375000D03*
%TO.P,U2,5,COMP*%
%TO.N,unconnected-(U2-COMP-Pad5)*%
X228870000Y-96425000D03*
%TO.P,U2,6*%
%TO.N,Net-(RN1-R1.2)*%
X227600000Y-96425000D03*
%TO.P,U2,7,V+*%
%TO.N,vcc*%
X226330000Y-96425000D03*
%TO.P,U2,8,CP*%
%TO.N,Net-(U2-CP)*%
X225060000Y-96425000D03*
%TD*%
D16*
%TO.P,C3,1*%
%TO.N,vcc*%
X191000000Y-99462500D03*
%TO.P,C3,2*%
%TO.N,GND*%
X191000000Y-101537500D03*
%TD*%
D13*
%TO.P,TP1,1,1*%
%TO.N,Net-(RN1-R1.2)*%
X233965000Y-93900000D03*
%TD*%
D17*
%TO.P,C1,1*%
%TO.N,vcc*%
X193000000Y-99637500D03*
%TO.P,C1,2*%
%TO.N,GND*%
X193000000Y-101362500D03*
%TD*%
D18*
%TO.P,C2,1*%
%TO.N,vcc*%
X226927500Y-89900000D03*
%TO.P,C2,2*%
%TO.N,GND*%
X229002500Y-89900000D03*
%TD*%
D13*
%TO.P,TP2,1,1*%
%TO.N,GND*%
X233965000Y-104400000D03*
%TD*%
D19*
%TO.N,GND*%
X176100000Y-102300000D03*
X222400000Y-98800000D03*
X229500000Y-103102082D03*
X229465000Y-93400000D03*
%TO.N,Net-(RN1-R1.2)*%
X227600000Y-97900000D03*
%TO.N,Net-(RN1-R1.1)*%
X226330000Y-99670000D03*
%TD*%
D20*
%TO.N,vcc*%
X226965000Y-88400000D02*
X226927500Y-88437500D01*
D21*
X226927500Y-88437500D02*
X226927500Y-89900000D01*
X176200000Y-93900000D02*
X188102249Y-81997751D01*
X198367500Y-99637500D02*
X198730000Y-100000000D01*
X176200000Y-93900000D02*
X181762500Y-99462500D01*
X193000000Y-99637500D02*
X198367500Y-99637500D01*
X188102249Y-81997751D02*
X220562751Y-81997751D01*
X191000000Y-99462500D02*
X192825000Y-99462500D01*
D20*
X226330000Y-90497500D02*
X226330000Y-96425000D01*
X226927500Y-89900000D02*
X226330000Y-90497500D01*
D21*
X192825000Y-99462500D02*
X193000000Y-99637500D01*
X181762500Y-99462500D02*
X191000000Y-99462500D01*
X220562751Y-81997751D02*
X226965000Y-88400000D01*
D20*
%TO.N,GND*%
X229465000Y-93400000D02*
X229465000Y-90362500D01*
D21*
X185200000Y-100900000D02*
X185837500Y-101537500D01*
X220700000Y-118600000D02*
X186500000Y-118600000D01*
X229500000Y-103102082D02*
X229500000Y-103100000D01*
D20*
X229465000Y-93400000D02*
X228327500Y-93400000D01*
X200070000Y-98800000D02*
X222400000Y-98800000D01*
D21*
X199732500Y-101537500D02*
X200000000Y-101270000D01*
D20*
X233965000Y-104400000D02*
X232667082Y-103102082D01*
D21*
X192825000Y-101537500D02*
X193000000Y-101362500D01*
X192300000Y-101537500D02*
X192825000Y-101537500D01*
X186500000Y-118600000D02*
X176100000Y-108200000D01*
D20*
X232667082Y-103102082D02*
X229500000Y-103102082D01*
D21*
X229500000Y-103102082D02*
X229500000Y-109800000D01*
X192300000Y-101537500D02*
X199732500Y-101537500D01*
D20*
X229500000Y-103102082D02*
X228870000Y-102472082D01*
D21*
X185837500Y-101537500D02*
X192300000Y-101537500D01*
X176100000Y-108200000D02*
X176100000Y-102300000D01*
X176100000Y-102300000D02*
X177500000Y-100900000D01*
D20*
X229465000Y-90362500D02*
X229002500Y-89900000D01*
D21*
X177500000Y-100900000D02*
X185200000Y-100900000D01*
D20*
X200000000Y-98730000D02*
X200070000Y-98800000D01*
D21*
X229500000Y-109800000D02*
X220700000Y-118600000D01*
D20*
X228870000Y-102472082D02*
X228870000Y-101375000D01*
%TO.N,Net-(U2-+)*%
X227600000Y-101375000D02*
X227600000Y-100100000D01*
X227600000Y-102900000D02*
X226600000Y-103900000D01*
X224400000Y-103900000D02*
X220500000Y-100000000D01*
X226600000Y-103900000D02*
X224400000Y-103900000D01*
X220500000Y-100000000D02*
X201270000Y-100000000D01*
X227600000Y-101375000D02*
X227600000Y-102900000D01*
X228200000Y-99500000D02*
X230652500Y-99500000D01*
X230652500Y-99500000D02*
X230965000Y-99812500D01*
X227600000Y-100100000D02*
X228200000Y-99500000D01*
%TO.N,Net-(RN1-R1.2)*%
X231377500Y-97987500D02*
X233965000Y-95400000D01*
X233965000Y-95400000D02*
X233965000Y-93900000D01*
X230965000Y-97987500D02*
X231377500Y-97987500D01*
X227600000Y-97900000D02*
X230877500Y-97900000D01*
X230877500Y-97900000D02*
X230965000Y-97987500D01*
X227600000Y-97900000D02*
X227600000Y-96425000D01*
%TO.N,Net-(RN1-R1.1)*%
X226330000Y-99670000D02*
X226330000Y-101375000D01*
%TO.N,Net-(U2-CP)*%
X225060000Y-96425000D02*
X225060000Y-101375000D01*
%TD*%
%TA.AperFunction,NonConductor*%
G36*
X230381304Y-98519685D02*
G01*
X230407560Y-98544297D01*
X230407718Y-98544140D01*
X230412598Y-98549020D01*
X230414036Y-98550368D01*
X230414289Y-98550711D01*
X230520523Y-98629115D01*
X230520524Y-98629115D01*
X230520525Y-98629116D01*
X230645151Y-98672725D01*
X230645150Y-98672725D01*
X230674740Y-98675500D01*
X230674744Y-98675500D01*
X231255260Y-98675500D01*
X231284849Y-98672725D01*
X231328236Y-98657543D01*
X231409475Y-98629116D01*
X231515711Y-98550711D01*
X231515964Y-98550367D01*
X231516337Y-98550084D01*
X231522282Y-98544140D01*
X231523095Y-98544953D01*
X231571611Y-98508116D01*
X231615735Y-98500000D01*
X231876000Y-98500000D01*
X231943039Y-98519685D01*
X231988794Y-98572489D01*
X232000000Y-98624000D01*
X232000000Y-100876000D01*
X231980315Y-100943039D01*
X231927511Y-100988794D01*
X231876000Y-101000000D01*
X229494500Y-101000000D01*
X229427461Y-100980315D01*
X229381706Y-100927511D01*
X229370500Y-100876000D01*
X229370500Y-100516739D01*
X229361376Y-100454116D01*
X229360573Y-100448607D01*
X229309198Y-100343517D01*
X229309196Y-100343515D01*
X229309196Y-100343514D01*
X229226485Y-100260803D01*
X229121391Y-100209426D01*
X229053261Y-100199500D01*
X229053260Y-100199500D01*
X228686740Y-100199500D01*
X228686739Y-100199500D01*
X228618608Y-100209426D01*
X228513514Y-100260803D01*
X228430803Y-100343514D01*
X228379426Y-100448608D01*
X228369500Y-100516739D01*
X228369500Y-102233260D01*
X228379426Y-102301391D01*
X228406901Y-102357592D01*
X228419500Y-102412052D01*
X228419500Y-102531391D01*
X228437750Y-102599500D01*
X228450201Y-102645969D01*
X228509511Y-102748696D01*
X228509513Y-102748698D01*
X228523741Y-102762926D01*
X228557226Y-102824249D01*
X228552242Y-102893941D01*
X228546969Y-102906061D01*
X227034273Y-105931454D01*
X226986686Y-105982613D01*
X226923364Y-106000000D01*
X223551362Y-106000000D01*
X223484323Y-105980315D01*
X223463681Y-105963681D01*
X219000000Y-101500000D01*
X216129321Y-101500000D01*
X216119598Y-101499618D01*
X216118098Y-101499500D01*
X216118092Y-101499500D01*
X215881908Y-101499500D01*
X215881902Y-101499500D01*
X215880402Y-101499618D01*
X215870679Y-101500000D01*
X201605044Y-101500000D01*
X201538005Y-101480315D01*
X201492250Y-101427511D01*
X201482731Y-101396385D01*
X201407481Y-100944885D01*
X201415877Y-100875522D01*
X201460440Y-100821709D01*
X201527023Y-100800531D01*
X201529794Y-100800500D01*
X201548844Y-100800500D01*
X201548845Y-100800499D01*
X201703497Y-100769737D01*
X201849179Y-100709394D01*
X201980289Y-100621789D01*
X202091789Y-100510289D01*
X202094914Y-100505611D01*
X202148525Y-100460806D01*
X202198018Y-100450500D01*
X220262035Y-100450500D01*
X220329074Y-100470185D01*
X220349716Y-100486819D01*
X224123386Y-104260489D01*
X224226113Y-104319799D01*
X224250321Y-104326284D01*
X224250324Y-104326286D01*
X224250325Y-104326286D01*
X224280447Y-104334357D01*
X224340691Y-104350500D01*
X224340693Y-104350500D01*
X226659308Y-104350500D01*
X226659309Y-104350500D01*
X226749673Y-104326286D01*
X226773887Y-104319799D01*
X226876614Y-104260489D01*
X227960490Y-103176613D01*
X228019799Y-103073886D01*
X228024177Y-103057546D01*
X228050500Y-102959309D01*
X228050500Y-102412052D01*
X228063099Y-102357592D01*
X228090573Y-102301393D01*
X228100500Y-102233260D01*
X228100500Y-100516740D01*
X228092879Y-100464435D01*
X228090574Y-100448611D01*
X228090573Y-100448610D01*
X228090573Y-100448607D01*
X228063103Y-100392416D01*
X228051346Y-100323546D01*
X228078689Y-100259249D01*
X228086814Y-100250288D01*
X228350284Y-99986819D01*
X228411607Y-99953334D01*
X228437965Y-99950500D01*
X230165500Y-99950500D01*
X230232539Y-99970185D01*
X230278294Y-100022989D01*
X230289500Y-100074500D01*
X230289500Y-100115260D01*
X230292274Y-100144849D01*
X230335884Y-100269476D01*
X230414288Y-100375710D01*
X230414289Y-100375711D01*
X230520523Y-100454115D01*
X230520524Y-100454115D01*
X230520525Y-100454116D01*
X230645151Y-100497725D01*
X230645150Y-100497725D01*
X230674740Y-100500500D01*
X230674744Y-100500500D01*
X231255260Y-100500500D01*
X231284849Y-100497725D01*
X231322266Y-100484632D01*
X231409475Y-100454116D01*
X231515711Y-100375711D01*
X231594116Y-100269475D01*
X231637725Y-100144849D01*
X231640500Y-100115256D01*
X231640500Y-99509744D01*
X231638621Y-99489711D01*
X231637725Y-99480150D01*
X231602054Y-99378211D01*
X231594116Y-99355525D01*
X231576138Y-99331166D01*
X231515711Y-99249289D01*
X231515710Y-99249288D01*
X231409476Y-99170884D01*
X231284848Y-99127274D01*
X231284849Y-99127274D01*
X231255260Y-99124500D01*
X231255256Y-99124500D01*
X230936341Y-99124500D01*
X230874340Y-99107887D01*
X230866617Y-99103428D01*
X230826387Y-99080201D01*
X230800904Y-99073373D01*
X230800901Y-99073372D01*
X230763246Y-99063282D01*
X230711809Y-99049500D01*
X228140691Y-99049500D01*
X228051595Y-99073373D01*
X228051594Y-99073372D01*
X228026114Y-99080200D01*
X228026113Y-99080200D01*
X227923386Y-99139511D01*
X227923383Y-99139513D01*
X227239513Y-99823383D01*
X227239509Y-99823389D01*
X227180201Y-99926112D01*
X227180200Y-99926117D01*
X227149500Y-100040691D01*
X227149500Y-100337947D01*
X227136901Y-100392406D01*
X227109428Y-100448604D01*
X227109425Y-100448611D01*
X227099500Y-100516739D01*
X227099500Y-102233260D01*
X227109426Y-102301391D01*
X227136901Y-102357592D01*
X227149500Y-102412052D01*
X227149500Y-102662035D01*
X227129815Y-102729074D01*
X227113181Y-102749716D01*
X226449716Y-103413181D01*
X226388393Y-103446666D01*
X226362035Y-103449500D01*
X224637965Y-103449500D01*
X224570926Y-103429815D01*
X224550284Y-103413181D01*
X220776616Y-99639513D01*
X220776614Y-99639511D01*
X220725250Y-99609856D01*
X220673888Y-99580201D01*
X220661780Y-99576957D01*
X220649673Y-99573713D01*
X220649670Y-99573712D01*
X220611478Y-99563478D01*
X220559309Y-99549500D01*
X220559308Y-99549500D01*
X202198018Y-99549500D01*
X202130979Y-99529815D01*
X202094914Y-99494388D01*
X202091788Y-99489709D01*
X202064260Y-99462181D01*
X202030775Y-99400858D01*
X202035759Y-99331166D01*
X202077631Y-99275233D01*
X202143095Y-99250816D01*
X202151941Y-99250500D01*
X222142273Y-99250500D01*
X222181004Y-99258926D01*
X222181437Y-99257455D01*
X222328036Y-99300499D01*
X222328038Y-99300500D01*
X222328039Y-99300500D01*
X222471962Y-99300500D01*
X222471962Y-99300499D01*
X222539122Y-99280780D01*
X222618563Y-99257455D01*
X222619264Y-99259844D01*
X222675310Y-99251772D01*
X222738873Y-99280780D01*
X222751842Y-99293816D01*
X222923761Y-99494388D01*
X224529648Y-101367923D01*
X224558331Y-101431633D01*
X224559500Y-101448620D01*
X224559500Y-102233260D01*
X224569426Y-102301391D01*
X224620803Y-102406485D01*
X224703514Y-102489196D01*
X224703515Y-102489196D01*
X224703517Y-102489198D01*
X224808607Y-102540573D01*
X224842673Y-102545536D01*
X224876739Y-102550500D01*
X224876740Y-102550500D01*
X225243261Y-102550500D01*
X225277326Y-102545536D01*
X225311393Y-102540573D01*
X225392742Y-102500803D01*
X225461615Y-102489044D01*
X225499016Y-102499548D01*
X225499999Y-102500000D01*
X225966925Y-102500000D01*
X226021384Y-102512598D01*
X226078607Y-102540573D01*
X226112673Y-102545536D01*
X226146739Y-102550500D01*
X226146740Y-102550500D01*
X226513261Y-102550500D01*
X226535971Y-102547191D01*
X226581393Y-102540573D01*
X226686483Y-102489198D01*
X226769198Y-102406483D01*
X226820573Y-102301393D01*
X226830500Y-102233260D01*
X226830500Y-100516740D01*
X226822879Y-100464435D01*
X226820574Y-100448611D01*
X226820573Y-100448608D01*
X226820573Y-100448607D01*
X226793105Y-100392419D01*
X226793099Y-100392406D01*
X226780500Y-100337947D01*
X226780500Y-100263716D01*
X226781458Y-100248336D01*
X226798092Y-100115260D01*
X226986422Y-98608618D01*
X227014269Y-98544540D01*
X227072341Y-98505687D01*
X227109464Y-98500000D01*
X230314265Y-98500000D01*
X230381304Y-98519685D01*
G37*
%TD.AperFunction*%
M02*
